<?xml version="1.0" encoding="UTF-8"?>
<svg t="1730453189798" class="icon" viewBox="0 0 1024 1024" version="1.1" xmlns="http://www.w3.org/2000/svg" p-id="3783" width="32" height="32"><path d="M463.6 16.6L121.1 264.1c-65 47-31.8 149.7 48.4 149.7h685c80.2 0 113.5-102.8 48.4-149.7L560.4 16.6c-28.9-20.9-67.9-20.9-96.8 0zM928.9 582.5c0-55.5-45-100.5-100.5-100.5H195.6c-55.5 0-100.5 45-100.5 100.5V606.3C95.1 837 281.7 1024 512 1024s416.9-187 416.9-417.8v-23.7z" fill="#4dc2da" p-id="3784"></path><path d="M222.3 591m-76.5 0a76.5 76.5 0 1 0 153 0 76.5 76.5 0 1 0-153 0Z" fill="#ffd96e" p-id="3785"></path><path d="M801.7 591m-76.5 0a76.5 76.5 0 1 0 153 0 76.5 76.5 0 1 0-153 0Z" fill="#ffd96e" p-id="3786"></path><path d="M359 781.7c9.9 78.3 74.6 138.7 153 138.7S655.1 860 665 781.7H359z" fill="#ffd96e" p-id="3787"></path><path d="M263.9 252.2c-5.3 0-10.5-2.4-13.8-7-5.5-7.6-3.8-18.2 3.8-23.7l73.7-53.2c7.6-5.5 18.2-3.8 23.7 3.8s3.8 18.2-3.8 23.7L273.8 249c-2.9 2.1-6.4 3.2-9.9 3.2z" fill="#ffd96e" p-id="3788"></path><path d="M384.7 164c-5.3 0-10.5-2.4-13.8-7-5.5-7.6-3.8-18.2 3.8-23.7L404 112c7.6-5.5 18.2-3.8 23.7 3.8s3.8 18.2-3.8 23.7l-29.3 21.2c-3 2.3-6.5 3.3-9.9 3.3z" fill="#ffd96e" p-id="3789"></path></svg>