<?xml version="1.0" encoding="UTF-8"?>
<svg t="1730449631142" class="icon" viewBox="0 0 1024 1024" version="1.1" xmlns="http://www.w3.org/2000/svg" p-id="2708" width="32" height="32"><path d="M90.68 508.739c19.567 0 32.612-13.045 32.612-32.612V300.025c0-13.044 6.522-26.089 19.566-26.089L501.585 65.223c6.522 0 19.566 0 32.611 6.522l91.312 52.179c13.045 6.522 32.612 0 39.134-13.045s6.522-32.611-6.522-45.656l-91.313-52.178c-32.611-19.567-65.222-19.567-97.834 0L110.247 221.758c-32.611 13.045-52.178 45.656-52.178 84.79V482.65c0 13.044 13.044 26.089 32.611 26.089zM710.298 854.42L534.196 958.777c-13.045 6.522-26.09 6.522-32.611 0L142.858 750.064c-13.044-6.523-19.566-19.567-19.566-32.612V606.573c0-19.567-13.045-32.611-32.612-32.611s-32.61 19.567-32.61 39.134v104.356c0 32.612 19.567 65.223 45.656 84.79l358.726 208.713c13.044 6.523 32.611 13.045 45.656 13.045 19.567 0 32.611-6.522 45.656-13.045L729.865 906.6c13.044-6.523 19.567-26.09 13.044-45.656 0-13.045-19.566-19.567-32.611-6.523z m215.236-632.662l-150.013-84.79c-13.045-6.522-32.612-6.522-45.656 13.045-6.522 13.044-6.522 32.611 13.044 45.656l150.013 84.79c6.522 0 13.045 13.044 13.045 26.089v417.427c0 13.044-6.523 26.089-19.567 26.089l-52.179 32.611c-13.044 6.522-19.566 26.09-13.044 45.656 6.522 13.045 19.567 13.045 26.09 13.045 6.521 0 13.044 0 13.044-6.522l58.7-32.612c32.612-19.567 45.656-52.178 45.656-84.79V300.025c6.523-32.611-13.044-65.222-39.133-78.267z" p-id="2709" fill="#fff"></path><path d="M755.954 352.204L534.196 221.758c-13.045-6.522-19.567-6.522-32.611 0L279.827 352.204c-13.045 6.522-19.567 19.567-19.567 32.611v260.892c0 13.045 6.522 19.567 13.044 26.09l221.758 130.445c6.523 0 13.045 6.522 13.045 6.522 6.522 0 13.044 0 13.044-6.522L742.91 671.796c13.045-6.522 13.045-19.567 13.045-26.089V384.815c13.045-13.044 6.522-26.089 0-32.611zM514.629 286.98l163.057 91.312-163.057 97.834-163.057-91.312 163.057-97.834zM318.96 436.994l163.058 91.312v189.146L318.96 626.14V436.994z m228.28 280.458V528.306l163.058-91.312v182.624L547.24 717.452z" p-id="2710" fill="#fff"></path></svg>